<?xml version="1.0" standalone="no"?>
<!DOCTYPE svg PUBLIC "-//W3C//DTD SVG 20010904//EN"
 "http://www.w3.org/TR/2001/REC-SVG-20010904/DTD/svg10.dtd">
<svg version="1.0" xmlns="http://www.w3.org/2000/svg"
 width="601.000000pt" height="401.000000pt" viewBox="0 0 601.000000 401.000000"
 preserveAspectRatio="xMidYMid meet">

<g transform="translate(0.000000,401.000000) scale(0.100000,-0.100000)"
fill="#000000" stroke="none">
<path d="M3589 2485 c-217 -365 -396 -665 -399 -665 -3 0 -48 72 -100 160 -52
88 -97 160 -100 160 -5 0 -980 -1639 -988 -1661 -2 -5 471 -9 1196 -9 l1200 0
92 156 c62 106 96 154 105 150 9 -3 12 0 8 10 -4 12 23 14 181 14 145 0 186
-3 186 -13 0 -7 8 -13 18 -13 12 0 19 9 20 26 2 20 -3 26 -18 26 -11 0 -20 -4
-20 -8 0 -4 -83 -8 -185 -8 l-186 0 27 45 c14 25 24 45 21 45 -3 0 -16 -18
-28 -40 -13 -22 -26 -40 -29 -40 -6 0 -190 304 -190 315 0 3 83 5 185 5 201 0
200 0 167 -55 -49 -80 -73 -125 -69 -125 3 0 26 36 52 81 27 45 53 78 59 76 8
-3 12 5 12 23 0 18 -4 26 -12 23 -9 -3 -107 150 -191 300 -2 4 82 7 187 7 142
0 189 -3 184 -12 -4 -7 -3 -8 4 -4 33 20 -3 26 -183 28 l-194 3 93 158 c51 86
96 154 101 150 5 -5 -1 8 -12 27 -12 19 -144 244 -296 500 -453 767 -487 825
-496 828 -4 1 -185 -297 -402 -663z m1177 -691 c-6 -15 -163 -282 -173 -294
-3 -3 -9 2 -13 10 -5 8 -48 79 -94 158 l-85 142 186 0 c167 0 185 -2 179 -16z
m-86 -480 c47 -80 87 -150 88 -155 2 -5 -69 -9 -177 -9 -100 0 -181 3 -181 6
0 10 174 304 180 304 3 -1 43 -66 90 -146z m-200 -340 c47 -80 87 -149 88
-155 2 -5 -71 -9 -181 -9 l-186 0 92 155 c51 85 94 155 97 155 3 0 43 -66 90
-146z m90 -184 c0 -13 -173 -309 -180 -309 -5 0 -111 175 -168 277 l-24 42
186 0 c120 0 186 -4 186 -10z"/>
<path d="M4950 1420 c-6 -11 -8 -20 -6 -20 3 0 10 9 16 20 6 11 8 20 6 20 -3
0 -10 -9 -16 -20z"/>
<path d="M4927 1383 c-2 -5 -17 -30 -32 -58 -16 -27 -24 -45 -18 -40 14 14 66
105 60 105 -3 0 -8 -3 -10 -7z"/>
<path d="M4850 1250 c-6 -11 -8 -20 -6 -20 3 0 10 9 16 20 6 11 8 20 6 20 -3
0 -10 -9 -16 -20z"/>
<path d="M4820 1200 c-6 -11 -8 -20 -6 -20 3 0 10 9 16 20 6 11 8 20 6 20 -3
0 -10 -9 -16 -20z"/>
<path d="M4820 1080 c6 -11 13 -20 16 -20 2 0 0 9 -6 20 -6 11 -13 20 -16 20
-2 0 0 -9 6 -20z"/>
<path d="M4860 1010 c6 -11 13 -20 16 -20 2 0 0 9 -6 20 -6 11 -13 20 -16 20
-2 0 0 -9 6 -20z"/>
<path d="M4890 960 c6 -11 13 -20 16 -20 2 0 0 9 -6 20 -6 11 -13 20 -16 20
-2 0 0 -9 6 -20z"/>
<path d="M4660 930 c-6 -11 -8 -20 -6 -20 3 0 10 9 16 20 6 11 8 20 6 20 -3 0
-10 -9 -16 -20z"/>
<path d="M4920 910 c6 -11 13 -20 16 -20 2 0 0 9 -6 20 -6 11 -13 20 -16 20
-2 0 0 -9 6 -20z"/>
<path d="M4950 860 c6 -11 13 -20 16 -20 2 0 0 9 -6 20 -6 11 -13 20 -16 20
-2 0 0 -9 6 -20z"/>
<path d="M4620 740 c6 -11 13 -20 16 -20 2 0 0 9 -6 20 -6 11 -13 20 -16 20
-2 0 0 -9 6 -20z"/>
<path d="M4650 690 c6 -11 13 -20 16 -20 2 0 0 9 -6 20 -6 11 -13 20 -16 20
-2 0 0 -9 6 -20z"/>
<path d="M4680 640 c6 -11 13 -20 16 -20 2 0 0 9 -6 20 -6 11 -13 20 -16 20
-2 0 0 -9 6 -20z"/>
<path d="M4725 565 c15 -27 32 -54 38 -60 6 -5 -2 13 -18 40 -15 28 -32 55
-38 60 -6 6 2 -12 18 -40z"/>
<path d="M4777 479 c7 -7 15 -10 18 -7 3 3 -2 9 -12 12 -14 6 -15 5 -6 -5z"/>
</g>
</svg>
