<?xml version="1.0" encoding="UTF-8"?>
<!DOCTYPE svg PUBLIC "-//W3C//DTD SVG 1.1//EN" "http://www.w3.org/Graphics/SVG/1.1/DTD/svg11.dtd">
<svg xmlns="http://www.w3.org/2000/svg" version="1.1" width="1152px" height="648px" style="shape-rendering:geometricPrecision; text-rendering:geometricPrecision; image-rendering:optimizeQuality; fill-rule:evenodd; clip-rule:evenodd" xmlns:xlink="http://www.w3.org/1999/xlink">
<g><path style="opacity:1" fill="#fefefe" d="M -0.5,-0.5 C 383.5,-0.5 767.5,-0.5 1151.5,-0.5C 1151.5,215.5 1151.5,431.5 1151.5,647.5C 767.5,647.5 383.5,647.5 -0.5,647.5C -0.5,431.5 -0.5,215.5 -0.5,-0.5 Z"/></g>
<g><path style="opacity:1" fill="#057aca" d="M 84.5,19.5 C 81.9307,24.241 78.7641,28.5743 75,32.5C 73.4157,33.8613 71.5824,34.528 69.5,34.5C 69.1667,38.8333 71.1667,40.8333 75.5,40.5C 75.5,41.8333 75.5,43.1667 75.5,44.5C 71.6512,44.502 68.9845,46.3353 67.5,50C 55.5046,50.4999 43.5046,50.6665 31.5,50.5C 31.5,49.1667 31.5,47.8333 31.5,46.5C 34.4617,43.0252 37.295,39.3585 40,35.5C 42.8333,33 45.6667,30.5 48.5,28C 51.096,27.542 53.2627,28.3754 55,30.5C 55.7504,29.8742 56.5838,29.3742 57.5,29C 62.1667,23.3333 66.8333,17.6667 71.5,12C 73.8974,10.2759 76.2307,10.2759 78.5,12C 80.364,14.6877 82.364,17.1877 84.5,19.5 Z"/></g>
<g><path style="opacity:1" fill="#1584ce" d="M 84.5,19.5 C 87.0644,23.41 90.0644,27.0767 93.5,30.5C 92.3908,34.8595 89.7241,37.5262 85.5,38.5C 85.5391,36.6412 84.7058,35.3079 83,34.5C 82.545,37.137 83.045,39.637 84.5,42C 83.9529,44.2173 82.9529,46.2173 81.5,48C 81.6448,48.772 81.9781,49.4387 82.5,50C 80.2922,50.1909 78.2922,50.6909 76.5,51.5C 61.324,51.8294 46.324,51.4961 31.5,50.5C 43.5046,50.6665 55.5046,50.4999 67.5,50C 68.9845,46.3353 71.6512,44.502 75.5,44.5C 75.5,43.1667 75.5,41.8333 75.5,40.5C 71.1667,40.8333 69.1667,38.8333 69.5,34.5C 71.5824,34.528 73.4157,33.8613 75,32.5C 78.7641,28.5743 81.9307,24.241 84.5,19.5 Z"/></g>
<g><path style="opacity:1" fill="#53a5dc" d="M 98.5,35.5 C 99.8333,36.8333 101.167,38.1667 102.5,39.5C 103.164,42.6779 104.664,45.3446 107,47.5C 107.684,48.7839 107.517,49.9505 106.5,51C 99.8417,51.4996 93.175,51.6663 86.5,51.5C 87.5676,50.5655 88.901,50.2322 90.5,50.5C 91.8351,46.6192 93.0018,42.6192 94,38.5C 96.5522,39.4872 98.0522,38.4872 98.5,35.5 Z"/></g>
<g><path style="opacity:1" fill="#71a9ce" d="M 102.5,39.5 C 105.585,44.075 109.252,48.2417 113.5,52C 101.171,52.4999 88.8378,52.6665 76.5,52.5C 76.5,52.1667 76.5,51.8333 76.5,51.5C 79.8333,51.5 83.1667,51.5 86.5,51.5C 93.175,51.6663 99.8417,51.4996 106.5,51C 107.517,49.9505 107.684,48.7839 107,47.5C 104.664,45.3446 103.164,42.6779 102.5,39.5 Z"/></g>
<g><path style="opacity:1" fill="#3696d6" d="M 93.5,30.5 C 94.8333,32.5 96.5,34.1667 98.5,35.5C 98.0522,38.4872 96.5522,39.4872 94,38.5C 93.0018,42.6192 91.8351,46.6192 90.5,50.5C 88.901,50.2322 87.5676,50.5655 86.5,51.5C 83.1667,51.5 79.8333,51.5 76.5,51.5C 78.2922,50.6909 80.2922,50.1909 82.5,50C 81.9781,49.4387 81.6448,48.772 81.5,48C 82.9529,46.2173 83.9529,44.2173 84.5,42C 83.045,39.637 82.545,37.137 83,34.5C 84.7058,35.3079 85.5391,36.6412 85.5,38.5C 89.7241,37.5262 92.3908,34.8595 93.5,30.5 Z"/></g>
<g><path style="opacity:1" fill="#2573a5" d="M 31.5,46.5 C 31.5,47.8333 31.5,49.1667 31.5,50.5C 46.324,51.4961 61.324,51.8294 76.5,51.5C 76.5,51.8333 76.5,52.1667 76.5,52.5C 59.83,52.6666 43.1633,52.4999 26.5,52C 29.113,50.8935 30.7797,49.0601 31.5,46.5 Z"/></g>
</svg>
