<svg xmlns="http://www.w3.org/2000/svg" width="1152" height="720" viewBox="0 0 1152 720" version="1.1"><path d="M 53 8.892 C 53 9.382, 51.905 10.058, 50.567 10.394 C 49.228 10.730, 47.869 11.838, 47.546 12.856 C 47.223 13.874, 45.174 16.686, 42.993 19.104 C 40.812 21.522, 39.022 23.868, 39.014 24.318 C 39.006 24.768, 37.722 24.226, 36.160 23.114 L 33.319 21.091 29.160 24.856 C 26.872 26.926, 25 29.150, 25 29.799 C 25 31.473, 21.798 35, 20.278 35 C 19.575 35, 19 35.900, 19 37 C 19 38.100, 18.566 39, 18.035 39 C 17.505 39, 16.589 39.900, 16 41 C 14.939 42.983, 15.240 43, 50.473 43 C 85.767 43, 86.008 42.986, 84.768 41 C 84.081 39.900, 83.065 38.997, 82.509 38.992 C 81.954 38.988, 80.474 37.188, 79.220 34.992 C 77.966 32.797, 76.504 31, 75.970 31 C 75.437 31, 75 30.568, 75 30.040 C 75 29.512, 72.862 26.869, 70.250 24.167 C 67.638 21.466, 63.283 16.723, 60.573 13.628 C 56.093 8.511, 53 6.577, 53 8.892" stroke="none" fill="#047ccc" fill-rule="evenodd"/><path d="M 0 360.001 L 0 720.002 576.250 719.751 L 1152.500 719.500 1152.751 359.750 L 1153.003 -0 576.501 -0 L 0 0 0 360.001 M 0.495 360.500 C 0.495 558.500, 0.609 639.649, 0.750 540.831 C 0.890 442.013, 0.890 280.013, 0.750 180.831 C 0.609 81.649, 0.495 162.500, 0.495 360.500 M 53 8.892 C 53 9.382, 51.905 10.058, 50.567 10.394 C 49.228 10.730, 47.869 11.838, 47.546 12.856 C 47.223 13.874, 45.174 16.686, 42.993 19.104 C 40.812 21.522, 39.022 23.868, 39.014 24.318 C 39.006 24.768, 37.722 24.226, 36.160 23.114 L 33.319 21.091 29.160 24.856 C 26.872 26.926, 25 29.150, 25 29.799 C 25 31.473, 21.798 35, 20.278 35 C 19.575 35, 19 35.900, 19 37 C 19 38.100, 18.566 39, 18.035 39 C 17.505 39, 16.589 39.900, 16 41 C 14.939 42.983, 15.240 43, 50.473 43 C 85.767 43, 86.008 42.986, 84.768 41 C 84.081 39.900, 83.065 38.997, 82.509 38.992 C 81.954 38.988, 80.474 37.188, 79.220 34.992 C 77.966 32.797, 76.504 31, 75.970 31 C 75.437 31, 75 30.568, 75 30.040 C 75 29.512, 72.862 26.869, 70.250 24.167 C 67.638 21.466, 63.283 16.723, 60.573 13.628 C 56.093 8.511, 53 6.577, 53 8.892" stroke="none" fill="#fcfcfc" fill-rule="evenodd"/></svg>